<svg width="93" height="69" viewBox="0 0 93 69" fill="none" xmlns="http://www.w3.org/2000/svg"> <path fill-rule="evenodd" clip-rule="evenodd" d="M39.9577 25.9789C39.9577 33.6992 33.6992 39.9577 25.9789 39.9577C18.2586 39.9577 12 33.6992 12 25.9789C12 18.2586 18.2586 12 25.9789 12C33.6992 12 39.9577 18.2586 39.9577 25.9789ZM41.4671 46.838C37.1423 50.0545 31.7828 51.9577 25.9789 51.9577C11.6311 51.9577 0 40.3266 0 25.9789C0 11.6311 11.6311 0 25.9789 0C38.7203 0 49.3194 9.17262 51.5329 21.2747C55.8577 18.0582 61.2171 16.1549 67.0211 16.1549C81.3688 16.1549 93 27.786 93 42.1338C93 56.4815 81.3688 68.1127 67.0211 68.1127C54.2797 68.1127 43.6806 58.94 41.4671 46.838ZM81 42.1338C81 49.8541 74.7414 56.1127 67.0211 56.1127C59.3008 56.1127 53.0422 49.8541 53.0422 42.1338C53.0422 34.4135 59.3008 28.1549 67.0211 28.1549C74.7414 28.1549 81 34.4135 81 42.1338Z" fill="#04C694"/> </svg>