<?xml version="1.0" encoding="utf-8"?>
<!-- Generator: Adobe Illustrator 22.0.1, SVG Export Plug-In . SVG Version: 6.00 Build 0)  -->
<svg version="1.1" id="Layer_1" xmlns="http://www.w3.org/2000/svg" xmlns:xlink="http://www.w3.org/1999/xlink" x="0px" y="0px"
	 viewBox="0 0 28 28" style="enable-background:new 0 0 28 28;" xml:space="preserve">
<style type="text/css">
	.st0{clip-path:url(#SVGID_2_);}
	.st1{fill:#04C694;}
</style>
<g>
	<defs>
		<rect id="SVGID_1_" width="28" height="28"/>
	</defs>
	<clipPath id="SVGID_2_">
		<use xlink:href="#SVGID_1_"  style="overflow:visible;"/>
	</clipPath>
	<g class="st0">
		<path class="st1" d="M8.2,0H4.7C3.4,0,2.2,0.5,1.4,1.4C0.5,2.2,0,3.4,0,4.7v3.5c0,1.2,0.5,2.4,1.4,3.3c0.9,0.9,2.1,1.4,3.3,1.4
			h3.5c1.2,0,2.4-0.5,3.3-1.4c0.9-0.9,1.4-2.1,1.4-3.3V4.7c0-1.2-0.5-2.4-1.4-3.3C10.6,0.5,9.4,0,8.2,0L8.2,0z M10.5,8.2
			c0,0.6-0.2,1.2-0.7,1.6c-0.4,0.4-1,0.7-1.6,0.7H4.7C4,10.5,3.5,10.3,3,9.8c-0.4-0.4-0.7-1-0.7-1.6V4.7C2.3,4,2.6,3.5,3,3
			c0.4-0.4,1-0.7,1.6-0.7h3.5c0.6,0,1.2,0.2,1.6,0.7c0.4,0.4,0.7,1,0.7,1.6V8.2z"/>
		<path class="st1" d="M23.3,0h-3.5c-1.2,0-2.4,0.5-3.3,1.4c-0.9,0.9-1.4,2.1-1.4,3.3v3.5c0,1.2,0.5,2.4,1.4,3.3
			c0.9,0.9,2.1,1.4,3.3,1.4h3.5c1.2,0,2.4-0.5,3.3-1.4c0.9-0.9,1.4-2.1,1.4-3.3V4.7c0-1.2-0.5-2.4-1.4-3.3C25.8,0.5,24.6,0,23.3,0
			L23.3,0z M25.7,8.2c0,0.6-0.2,1.2-0.7,1.6c-0.4,0.4-1,0.7-1.6,0.7h-3.5c-0.6,0-1.2-0.2-1.6-0.7c-0.4-0.4-0.7-1-0.7-1.6V4.7
			c0-0.6,0.2-1.2,0.7-1.6c0.4-0.4,1-0.7,1.6-0.7h3.5C24,2.3,24.5,2.6,25,3c0.4,0.4,0.7,1,0.7,1.6V8.2z"/>
		<path class="st1" d="M8.2,15.2H4.7c-1.2,0-2.4,0.5-3.3,1.4C0.5,17.4,0,18.6,0,19.8v3.5c0,1.2,0.5,2.4,1.4,3.3
			C2.2,27.5,3.4,28,4.7,28h3.5c1.2,0,2.4-0.5,3.3-1.4c0.9-0.9,1.4-2.1,1.4-3.3v-3.5c0-1.2-0.5-2.4-1.4-3.3
			C10.6,15.7,9.4,15.2,8.2,15.2z M10.5,23.3c0,0.6-0.2,1.2-0.7,1.6c-0.4,0.4-1,0.7-1.6,0.7H4.7C4,25.7,3.5,25.4,3,25
			c-0.4-0.4-0.7-1-0.7-1.6v-3.5c0-0.6,0.2-1.2,0.7-1.6c0.4-0.4,1-0.7,1.6-0.7h3.5c0.6,0,1.2,0.2,1.6,0.7c0.4,0.4,0.7,1,0.7,1.6V23.3
			z"/>
		<path class="st1" d="M23.3,15.2h-3.5c-1.2,0-2.4,0.5-3.3,1.4c-0.9,0.9-1.4,2.1-1.4,3.3v3.5c0,1.2,0.5,2.4,1.4,3.3
			c0.9,0.9,2.1,1.4,3.3,1.4h3.5c1.2,0,2.4-0.5,3.3-1.4c0.9-0.9,1.4-2.1,1.4-3.3v-3.5c0-1.2-0.5-2.4-1.4-3.3
			C25.8,15.7,24.6,15.2,23.3,15.2z M25.7,23.3c0,0.6-0.2,1.2-0.7,1.6c-0.4,0.4-1,0.7-1.6,0.7h-3.5c-0.6,0-1.2-0.2-1.6-0.7
			c-0.4-0.4-0.7-1-0.7-1.6v-3.5c0-0.6,0.2-1.2,0.7-1.6c0.4-0.4,1-0.7,1.6-0.7h3.5c0.6,0,1.2,0.2,1.6,0.7c0.4,0.4,0.7,1,0.7,1.6V23.3
			z"/>
	</g>
</g>
</svg>
