<?xml version="1.0" encoding="utf-8"?>
<!-- Generator: Adobe Illustrator 22.0.1, SVG Export Plug-In . SVG Version: 6.00 Build 0)  -->
<svg version="1.1" id="Layer_1" xmlns="http://www.w3.org/2000/svg" xmlns:xlink="http://www.w3.org/1999/xlink" x="0px" y="0px"
	 viewBox="0 0 28 28" style="enable-background:new 0 0 28 28;" xml:space="preserve">
<style type="text/css">
	.st0{clip-path:url(#SVGID_2_);}
	.st1{fill:#04C694;}
</style>
<g>
	<g>
		<defs>
			<rect id="SVGID_1_" width="28" height="28"/>
		</defs>
		<clipPath id="SVGID_2_">
			<use xlink:href="#SVGID_1_"  style="overflow:visible;"/>
		</clipPath>
		<g class="st0">
			<path class="st1" d="M26.6,5.3c-0.4-0.2-0.9-0.2-1.3-0.1c-0.5,0.1-0.9,0.3-1.2,0.6l-3,3l-5.4-5.4c-0.4-0.4-1-0.7-1.6-0.7
				s-1.2,0.2-1.6,0.7L7,8.9l-3-3C3.7,5.5,3.2,5.3,2.8,5.2c-0.5-0.1-0.9,0-1.3,0.1C1,5.5,0.6,5.8,0.4,6.2C0.1,6.6,0,7,0,7.5v12.4
				c0,1.5,0.6,3,1.7,4.1s2.6,1.7,4.1,1.7h16.3c1.5,0,3-0.6,4.1-1.7s1.7-2.6,1.7-4.1V7.5c0-0.5-0.1-0.9-0.4-1.3
				C27.4,5.8,27,5.5,26.6,5.3z M25.7,19.8c0,0.9-0.4,1.8-1,2.5c-0.7,0.7-1.5,1-2.5,1H5.8c-0.9,0-1.8-0.4-2.5-1c-0.7-0.7-1-1.5-1-2.5
				V7.5l3.8,3.8c0.2,0.2,0.5,0.3,0.8,0.3s0.6-0.1,0.8-0.3L14,5.1l6.2,6.2c0.2,0.2,0.5,0.3,0.8,0.3s0.6-0.1,0.8-0.3l3.8-3.8v12.3
				H25.7z"/>
		</g>
	</g>
</g>
</svg>
