<svg width="22" height="22" viewBox="0 0 22 22" fill="none" xmlns="http://www.w3.org/2000/svg">
<g clip-path="url(#clip0)">
<path d="M8.25 11C9.3378 11 10.4012 10.6774 11.3056 10.0731C12.2101 9.46874 12.9151 8.60976 13.3313 7.60476C13.7476 6.59977 13.8565 5.4939 13.6443 4.42701C13.4321 3.36011 12.9083 2.3801 12.1391 1.61092C11.3699 0.841726 10.3899 0.317902 9.323 0.105683C8.2561 -0.106535 7.15023 0.00238307 6.14524 0.418665C5.14025 0.834947 4.28126 1.5399 3.67692 2.44437C3.07257 3.34884 2.75 4.41221 2.75 5.5C2.75146 6.95825 3.33139 8.35635 4.36252 9.38748C5.39366 10.4186 6.79176 10.9985 8.25 11ZM8.25 1.83334C8.9752 1.83334 9.68411 2.04838 10.2871 2.45128C10.8901 2.85418 11.36 3.42683 11.6376 4.09683C11.9151 4.76683 11.9877 5.50407 11.8462 6.21533C11.7047 6.9266 11.3555 7.57994 10.8427 8.09273C10.3299 8.60552 9.67659 8.95474 8.96533 9.09622C8.25407 9.23769 7.51682 9.16508 6.84683 8.88756C6.17683 8.61004 5.60418 8.14007 5.20128 7.53709C4.79838 6.93411 4.58333 6.2252 4.58333 5.5C4.58333 4.52754 4.96964 3.59491 5.65727 2.90728C6.34491 2.21964 7.27754 1.83334 8.25 1.83334Z" fill="#04C694"/>
<path d="M8.25 12.8333C6.06278 12.836 3.96591 13.7061 2.41932 15.2527C0.872719 16.7992 0.00266838 18.8961 0 21.0833C0 21.3265 0.0965771 21.5596 0.268485 21.7315C0.440394 21.9034 0.673552 22 0.916667 22C1.15978 22 1.39294 21.9034 1.56485 21.7315C1.73676 21.5596 1.83333 21.3265 1.83333 21.0833C1.83333 19.3815 2.50937 17.7494 3.71273 16.5461C4.91609 15.3427 6.54819 14.6667 8.25 14.6667C9.95181 14.6667 11.5839 15.3427 12.7873 16.5461C13.9906 17.7494 14.6667 19.3815 14.6667 21.0833C14.6667 21.3265 14.7632 21.5596 14.9352 21.7315C15.1071 21.9034 15.3402 22 15.5833 22C15.8264 22 16.0596 21.9034 16.2315 21.7315C16.4034 21.5596 16.5 21.3265 16.5 21.0833C16.4973 18.8961 15.6273 16.7992 14.0807 15.2527C12.5341 13.7061 10.4372 12.836 8.25 12.8333Z" fill="#04C694"/>
<path d="M20.1668 7.21875C19.6566 7.24416 19.1773 7.47062 18.8337 7.84856C18.4902 8.22651 18.3103 8.72517 18.3335 9.23542C18.3566 8.72517 18.1767 8.22651 17.8332 7.84856C17.4896 7.47062 17.0103 7.24416 16.5001 7.21875C15.99 7.24416 15.5107 7.47062 15.1671 7.84856C14.8235 8.22651 14.6436 8.72517 14.6668 9.23542C14.6668 10.8213 16.7348 12.6793 17.7651 13.5062C17.9264 13.6353 18.1268 13.7057 18.3335 13.7057C18.5401 13.7057 18.7405 13.6353 18.9018 13.5062C19.9321 12.6812 22.0001 10.8213 22.0001 9.23542C22.0233 8.72517 21.8434 8.22651 21.4998 7.84856C21.1562 7.47062 20.6769 7.24416 20.1668 7.21875Z" fill="#04C694"/>
</g>
<defs>
<clipPath id="clip0">
<rect width="22" height="22" fill="white"/>
</clipPath>
</defs>
</svg>
