<?xml version="1.0" encoding="utf-8"?>
<!-- Generator: Adobe Illustrator 22.0.1, SVG Export Plug-In . SVG Version: 6.00 Build 0)  -->
<svg version="1.1" id="Layer_1" xmlns="http://www.w3.org/2000/svg" xmlns:xlink="http://www.w3.org/1999/xlink" x="0px" y="0px"
	 viewBox="0 0 28 28" style="enable-background:new 0 0 28 28;" xml:space="preserve">
<style type="text/css">
	.st0{clip-path:url(#SVGID_2_);}
	.st1{fill:#04C694;}
</style>
<g>
	<defs>
		<rect id="SVGID_1_" width="28" height="28"/>
	</defs>
	<clipPath id="SVGID_2_">
		<use xlink:href="#SVGID_1_"  style="overflow:visible;"/>
	</clipPath>
	<g class="st0">
		<path class="st1" d="M8.8,15.2c-1,0-2.1-0.3-2.9-0.9c-0.9-0.6-1.5-1.4-1.9-2.4c-0.4-1-0.5-2-0.3-3c0.2-1,0.7-2,1.4-2.7
			C5.8,5.5,6.7,5,7.7,4.8s2.1-0.1,3,0.3c1,0.4,1.8,1.1,2.4,1.9C13.7,7.9,14,8.9,14,9.9c0,1.4-0.6,2.7-1.5,3.7
			C11.5,14.6,10.1,15.2,8.8,15.2z M8.8,7C8.2,7,7.6,7.2,7.1,7.5C6.6,7.8,6.3,8.3,6.1,8.8c-0.2,0.5-0.3,1.1-0.2,1.7
			C6,11.1,6.3,11.6,6.7,12c0.4,0.4,0.9,0.7,1.5,0.8c0.6,0.1,1.2,0.1,1.7-0.2c0.5-0.2,1-0.6,1.3-1.1c0.3-0.5,0.5-1,0.5-1.6
			c0-0.8-0.3-1.5-0.9-2.1S9.5,7,8.8,7z M17.5,26.8v-0.6c0-2.3-0.9-4.5-2.6-6.2c-1.6-1.6-3.9-2.6-6.2-2.6c-2.3,0-4.5,0.9-6.2,2.6
			C0.9,21.7,0,23.9,0,26.3v0.6c0,0.3,0.1,0.6,0.3,0.8C0.6,27.9,0.9,28,1.2,28c0.3,0,0.6-0.1,0.8-0.3c0.2-0.2,0.3-0.5,0.3-0.8v-0.6
			c0-1.7,0.7-3.3,1.9-4.5c1.2-1.2,2.8-1.9,4.5-1.9c1.7,0,3.3,0.7,4.5,1.9c1.2,1.2,1.9,2.8,1.9,4.5v0.6c0,0.3,0.1,0.6,0.3,0.8
			S16,28,16.3,28c0.3,0,0.6-0.1,0.8-0.3S17.5,27.1,17.5,26.8z M28,21c0-1.6-0.5-3.1-1.3-4.4c-0.9-1.3-2.1-2.4-3.5-3
			c-1.4-0.6-3-0.9-4.6-0.6c-1.6,0.2-3,0.9-4.2,2c-0.1,0.1-0.2,0.2-0.3,0.4C14,15.4,14,15.6,14,15.7c0,0.2,0,0.3,0.1,0.5
			c0.1,0.1,0.1,0.3,0.2,0.4s0.2,0.2,0.4,0.3c0.1,0.1,0.3,0.1,0.4,0.1c0.2,0,0.3,0,0.5-0.1c0.1-0.1,0.3-0.1,0.4-0.2
			c0.8-0.8,1.9-1.2,3-1.4c1.1-0.2,2.3,0,3.3,0.4c1,0.5,1.9,1.2,2.5,2.2c0.6,0.9,0.9,2,0.9,3.2c0,0.3,0.1,0.6,0.3,0.8
			c0.2,0.2,0.5,0.3,0.8,0.3c0.3,0,0.6-0.1,0.8-0.3C27.9,21.6,28,21.3,28,21z M20.4,10.5c-1,0-2.1-0.3-2.9-0.9
			C16.6,9,16,8.2,15.6,7.3c-0.4-1-0.5-2-0.3-3c0.2-1,0.7-2,1.4-2.7c0.7-0.7,1.7-1.2,2.7-1.4c1-0.2,2.1-0.1,3,0.3
			c1,0.4,1.8,1.1,2.4,1.9c0.6,0.9,0.9,1.9,0.9,2.9c0,1.4-0.6,2.7-1.5,3.7C23.1,9.9,21.8,10.5,20.4,10.5z M20.4,2.3
			c-0.6,0-1.1,0.2-1.6,0.5c-0.5,0.3-0.9,0.8-1.1,1.3c-0.2,0.5-0.3,1.1-0.2,1.7c0.1,0.6,0.4,1.1,0.8,1.5c0.4,0.4,0.9,0.7,1.5,0.8
			c0.6,0.1,1.2,0.1,1.7-0.2c0.5-0.2,1-0.6,1.3-1.1c0.3-0.5,0.5-1,0.5-1.6c0-0.8-0.3-1.5-0.9-2.1C21.9,2.6,21.2,2.3,20.4,2.3z"/>
	</g>
</g>
</svg>
