<?xml version="1.0" encoding="utf-8"?>
<!-- Generator: Adobe Illustrator 22.0.1, SVG Export Plug-In . SVG Version: 6.00 Build 0)  -->
<svg version="1.1" id="Layer_1" xmlns="http://www.w3.org/2000/svg" xmlns:xlink="http://www.w3.org/1999/xlink" x="0px" y="0px"
	 viewBox="0 0 28 28" style="enable-background:new 0 0 28 28;" xml:space="preserve">
<style type="text/css">
	.st0{clip-path:url(#SVGID_2_);}
	.st1{fill:#04C694;}
</style>
<g>
	<defs>
		<rect id="SVGID_1_" width="28" height="28"/>
	</defs>
	<clipPath id="SVGID_2_">
		<use xlink:href="#SVGID_1_"  style="overflow:visible;"/>
	</clipPath>
	<g class="st0">
		<path class="st1" d="M26.8,12.8h-2.3v-2.3c0-0.3-0.1-0.6-0.3-0.8c-0.2-0.2-0.5-0.3-0.8-0.3s-0.6,0.1-0.8,0.3
			c-0.2,0.2-0.3,0.5-0.3,0.8v2.3h-2.3c-0.3,0-0.6,0.1-0.8,0.3c-0.2,0.2-0.3,0.5-0.3,0.8s0.1,0.6,0.3,0.8c0.2,0.2,0.5,0.3,0.8,0.3
			h2.3v2.3c0,0.3,0.1,0.6,0.3,0.8c0.2,0.2,0.5,0.3,0.8,0.3s0.6-0.1,0.8-0.3c0.2-0.2,0.3-0.5,0.3-0.8v-2.3h2.3c0.3,0,0.6-0.1,0.8-0.3
			c0.2-0.2,0.3-0.5,0.3-0.8s-0.1-0.6-0.3-0.8C27.4,13,27.1,12.8,26.8,12.8z"/>
		<path class="st1" d="M10.5,14c1.4,0,2.7-0.4,3.9-1.2c1.2-0.8,2-1.9,2.6-3.1c0.5-1.3,0.7-2.7,0.4-4S16.4,3,15.4,2.1
			c-1-1-2.2-1.6-3.6-1.9c-1.4-0.3-2.8-0.1-4,0.4C6.5,1.1,5.4,2,4.7,3.1C3.9,4.3,3.5,5.6,3.5,7c0,1.9,0.7,3.6,2.1,4.9
			C6.9,13.3,8.6,14,10.5,14z M10.5,2.3c0.9,0,1.8,0.3,2.6,0.8c0.8,0.5,1.4,1.2,1.7,2.1s0.4,1.8,0.3,2.7c-0.2,0.9-0.6,1.7-1.3,2.4
			c-0.7,0.7-1.5,1.1-2.4,1.3c-0.9,0.2-1.8,0.1-2.7-0.3c-0.9-0.4-1.6-1-2.1-1.7C6.1,8.8,5.8,7.9,5.8,7c0-1.2,0.5-2.4,1.4-3.3
			S9.3,2.3,10.5,2.3z"/>
		<path class="st1" d="M10.5,16.3c-2.8,0-5.5,1.1-7.4,3.1c-2,2-3.1,4.6-3.1,7.4c0,0.3,0.1,0.6,0.3,0.8C0.6,27.9,0.9,28,1.2,28
			c0.3,0,0.6-0.1,0.8-0.3c0.2-0.2,0.3-0.5,0.3-0.8c0-2.2,0.9-4.2,2.4-5.8c1.5-1.5,3.6-2.4,5.8-2.4c2.2,0,4.2,0.9,5.8,2.4
			c1.5,1.5,2.4,3.6,2.4,5.8c0,0.3,0.1,0.6,0.3,0.8s0.5,0.3,0.8,0.3c0.3,0,0.6-0.1,0.8-0.3s0.3-0.5,0.3-0.8c0-2.8-1.1-5.5-3.1-7.4
			C16,17.4,13.3,16.3,10.5,16.3z"/>
	</g>
</g>
</svg>
