<svg width="0" height="0" class="hidden">
  <symbol xmlns="http://www.w3.org/2000/svg" xmlns:xlink="http://www.w3.org/1999/xlink" viewBox="0 0 28 28" id="fr-app">
    <defs>
      <path id="a" d="M0 0h28v28H0z"></path>
    </defs>
    <clipPath id="b">
      <use xlink:href="#a" overflow="visible"></use>
    </clipPath>
    <g clip-path="url(#b)">
      <path d="M8.2 0H4.7C3.4 0 2.2.5 1.4 1.4.5 2.2 0 3.4 0 4.7v3.5c0 1.2.5 2.4 1.4 3.3.9.9 2.1 1.4 3.3 1.4h3.5c1.2 0 2.4-.5 3.3-1.4.9-.9 1.4-2.1 1.4-3.3V4.7c0-1.2-.5-2.4-1.4-3.3C10.6.5 9.4 0 8.2 0zm2.3 8.2c0 .6-.2 1.2-.7 1.6-.4.4-1 .7-1.6.7H4.7c-.7 0-1.2-.2-1.7-.7-.4-.4-.7-1-.7-1.6V4.7c0-.7.3-1.2.7-1.7.4-.4 1-.7 1.6-.7h3.5c.6 0 1.2.2 1.6.7.4.4.7 1 .7 1.6v3.6zM23.3 0h-3.5c-1.2 0-2.4.5-3.3 1.4-.9.9-1.4 2.1-1.4 3.3v3.5c0 1.2.5 2.4 1.4 3.3.9.9 2.1 1.4 3.3 1.4h3.5c1.2 0 2.4-.5 3.3-1.4.9-.9 1.4-2.1 1.4-3.3V4.7c0-1.2-.5-2.4-1.4-3.3-.8-.9-2-1.4-3.3-1.4zm2.4 8.2c0 .6-.2 1.2-.7 1.6-.4.4-1 .7-1.6.7h-3.5c-.6 0-1.2-.2-1.6-.7-.4-.4-.7-1-.7-1.6V4.7c0-.6.2-1.2.7-1.6.4-.4 1-.7 1.6-.7h3.5c.6-.1 1.1.2 1.6.6.4.4.7 1 .7 1.6v3.6zm-17.5 7H4.7c-1.2 0-2.4.5-3.3 1.4-.9.8-1.4 2-1.4 3.2v3.5c0 1.2.5 2.4 1.4 3.3.8.9 2 1.4 3.3 1.4h3.5c1.2 0 2.4-.5 3.3-1.4.9-.9 1.4-2.1 1.4-3.3v-3.5c0-1.2-.5-2.4-1.4-3.3-.9-.8-2.1-1.3-3.3-1.3zm2.3 8.1c0 .6-.2 1.2-.7 1.6-.4.4-1 .7-1.6.7H4.7c-.7.1-1.2-.2-1.7-.6-.4-.4-.7-1-.7-1.6v-3.5c0-.6.2-1.2.7-1.6.4-.4 1-.7 1.6-.7h3.5c.6 0 1.2.2 1.6.7.4.4.7 1 .7 1.6v3.4zm12.8-8.1h-3.5c-1.2 0-2.4.5-3.3 1.4-.9.9-1.4 2.1-1.4 3.3v3.5c0 1.2.5 2.4 1.4 3.3.9.9 2.1 1.4 3.3 1.4h3.5c1.2 0 2.4-.5 3.3-1.4.9-.9 1.4-2.1 1.4-3.3v-3.5c0-1.2-.5-2.4-1.4-3.3-.8-.9-2-1.4-3.3-1.4zm2.4 8.1c0 .6-.2 1.2-.7 1.6-.4.4-1 .7-1.6.7h-3.5c-.6 0-1.2-.2-1.6-.7-.4-.4-.7-1-.7-1.6v-3.5c0-.6.2-1.2.7-1.6.4-.4 1-.7 1.6-.7h3.5c.6 0 1.2.2 1.6.7.4.4.7 1 .7 1.6v3.5z"></path>
    </g>
  </symbol>
  <symbol xmlns="http://www.w3.org/2000/svg" xmlns:xlink="http://www.w3.org/1999/xlink" viewBox="0 0 28 28" id="fr-crown">
    <defs>
      <path id="a" d="M0 0h28v28H0z"></path>
    </defs>
    <clipPath id="b">
      <use xlink:href="#a" overflow="visible"></use>
    </clipPath>
    <g clip-path="url(#b)">
      <path d="M26.6 5.3c-.4-.2-.9-.2-1.3-.1-.5.1-.9.3-1.2.6l-3 3-5.4-5.4c-.4-.4-1-.7-1.6-.7s-1.2.2-1.6.7L7 8.9l-3-3c-.3-.4-.8-.6-1.2-.7-.5-.1-.9 0-1.3.1-.5.2-.9.5-1.1.9-.3.4-.4.8-.4 1.3v12.4c0 1.5.6 3 1.7 4.1s2.6 1.7 4.1 1.7h16.3c1.5 0 3-.6 4.1-1.7s1.7-2.6 1.7-4.1V7.5c0-.5-.1-.9-.4-1.3-.1-.4-.5-.7-.9-.9zm-.9 14.5c0 .9-.4 1.8-1 2.5-.7.7-1.5 1-2.5 1H5.8c-.9 0-1.8-.4-2.5-1-.7-.7-1-1.5-1-2.5V7.5l3.8 3.8c.2.2.5.3.8.3s.6-.1.8-.3L14 5.1l6.2 6.2c.2.2.5.3.8.3s.6-.1.8-.3l3.8-3.8v12.3h.1z"></path>
    </g>
  </symbol>
  <symbol   xmlns="http://www.w3.org/2000/svg" xmlns:xlink="http://www.w3.org/1999/xlink" viewBox="0 0 22 22" id="fr-following">
    <g clip-path="url(#clip0)">
      <path d="M8.25 11a5.5 5.5 0 100-11 5.5 5.5 0 000 11zm0-9.167a3.667 3.667 0 110 7.334 3.667 3.667 0 010-7.334zm0 11A8.26 8.26 0 000 21.083a.917.917 0 101.833 0 6.416 6.416 0 1112.834 0 .916.916 0 101.833 0 8.26 8.26 0 00-8.25-8.25zm11.917-5.614a1.931 1.931 0 00-1.834 2.016A1.932 1.932 0 0016.5 7.22a1.931 1.931 0 00-1.833 2.016c0 1.586 2.068 3.444 3.098 4.271a.91.91 0 001.137 0c1.03-.825 3.098-2.685 3.098-4.27a1.931 1.931 0 00-1.833-2.017z"></path>
    </g>
    <defs>
      <clipPath id="clip0">
        <path   d="M0 0h22v22H0z"></path>
      </clipPath>
    </defs>
  </symbol>
  <symbol xmlns="http://www.w3.org/2000/svg" xmlns:xlink="http://www.w3.org/1999/xlink" viewBox="0 0 28 28" id="fr-userPlus">
    <defs>
      <path id="a" d="M0 0h28v28H0z"></path>
    </defs>
    <clipPath id="b">
      <use xlink:href="#a" overflow="visible"></use>
    </clipPath>
    <g clip-path="url(#b)">
      <path d="M26.8 12.8h-2.3v-2.3c0-.3-.1-.6-.3-.8-.2-.2-.5-.3-.8-.3s-.6.1-.8.3c-.2.2-.3.5-.3.8v2.3H20c-.3 0-.6.1-.8.3-.2.2-.3.5-.3.8s.1.6.3.8c.2.2.5.3.8.3h2.3v2.3c0 .3.1.6.3.8.2.2.5.3.8.3s.6-.1.8-.3c.2-.2.3-.5.3-.8V15h2.3c.3 0 .6-.1.8-.3.2-.2.3-.5.3-.8s-.1-.6-.3-.8c-.2-.1-.5-.3-.8-.3zM10.5 14c1.4 0 2.7-.4 3.9-1.2 1.2-.8 2-1.9 2.6-3.1.5-1.3.7-2.7.4-4s-1-2.7-2-3.6c-1-1-2.2-1.6-3.6-1.9-1.4-.3-2.8-.1-4 .4-1.3.5-2.4 1.4-3.1 2.5C3.9 4.3 3.5 5.6 3.5 7c0 1.9.7 3.6 2.1 4.9 1.3 1.4 3 2.1 4.9 2.1zm0-11.7c.9 0 1.8.3 2.6.8s1.4 1.2 1.7 2.1.4 1.8.3 2.7c-.2.9-.6 1.7-1.3 2.4-.7.7-1.5 1.1-2.4 1.3-.9.2-1.8.1-2.7-.3-.9-.4-1.6-1-2.1-1.7-.5-.8-.8-1.7-.8-2.6 0-1.2.5-2.4 1.4-3.3s2.1-1.4 3.3-1.4zm0 14c-2.8 0-5.5 1.1-7.4 3.1-2 2-3.1 4.6-3.1 7.4 0 .3.1.6.3.8.3.3.6.4.9.4.3 0 .6-.1.8-.3.2-.2.3-.5.3-.8 0-2.2.9-4.2 2.4-5.8 1.5-1.5 3.6-2.4 5.8-2.4 2.2 0 4.2.9 5.8 2.4 1.5 1.5 2.4 3.6 2.4 5.8 0 .3.1.6.3.8s.5.3.8.3c.3 0 .6-.1.8-.3s.3-.5.3-.8c0-2.8-1.1-5.5-3.1-7.4-1.8-2.1-4.5-3.2-7.3-3.2z"></path>
    </g>
  </symbol>
  <symbol xmlns="http://www.w3.org/2000/svg" xmlns:xlink="http://www.w3.org/1999/xlink" viewBox="0 0 28 28" id="fr-users">
    <defs>
      <path id="a" d="M0 0h28v28H0z"></path>
    </defs>
    <clipPath id="b">
      <use xlink:href="#a" overflow="visible"></use>
    </clipPath>
    <g clip-path="url(#b)">
      <path d="M8.8 15.2c-1 0-2.1-.3-2.9-.9-.9-.6-1.5-1.4-1.9-2.4-.4-1-.5-2-.3-3s.7-2 1.4-2.7c.7-.7 1.6-1.2 2.6-1.4s2.1-.1 3 .3c1 .4 1.8 1.1 2.4 1.9.6.9.9 1.9.9 2.9 0 1.4-.6 2.7-1.5 3.7-1 1-2.4 1.6-3.7 1.6zm0-8.2c-.6 0-1.2.2-1.7.5s-.8.8-1 1.3c-.2.5-.3 1.1-.2 1.7.1.6.4 1.1.8 1.5.4.4.9.7 1.5.8.6.1 1.2.1 1.7-.2.5-.2 1-.6 1.3-1.1.3-.5.5-1 .5-1.6 0-.8-.3-1.5-.9-2.1S9.5 7 8.8 7zm8.7 19.8v-.6c0-2.3-.9-4.5-2.6-6.2-1.6-1.6-3.9-2.6-6.2-2.6-2.3 0-4.5.9-6.2 2.6A9.1 9.1 0 000 26.3v.6c0 .3.1.6.3.8.3.2.6.3.9.3.3 0 .6-.1.8-.3.2-.2.3-.5.3-.8v-.6c0-1.7.7-3.3 1.9-4.5 1.2-1.2 2.8-1.9 4.5-1.9 1.7 0 3.3.7 4.5 1.9 1.2 1.2 1.9 2.8 1.9 4.5v.6c0 .3.1.6.3.8s.6.3.9.3c.3 0 .6-.1.8-.3s.4-.6.4-.9zM28 21c0-1.6-.5-3.1-1.3-4.4-.9-1.3-2.1-2.4-3.5-3-1.4-.6-3-.9-4.6-.6-1.6.2-3 .9-4.2 2-.1.1-.2.2-.3.4-.1 0-.1.2-.1.3 0 .2 0 .3.1.5.1.1.1.3.2.4s.2.2.4.3c.1.1.3.1.4.1.2 0 .3 0 .5-.1.1-.1.3-.1.4-.2.8-.8 1.9-1.2 3-1.4 1.1-.2 2.3 0 3.3.4 1 .5 1.9 1.2 2.5 2.2.6.9.9 2 .9 3.2 0 .3.1.6.3.8.2.2.5.3.8.3.3 0 .6-.1.8-.3.3-.3.4-.6.4-.9zm-7.6-10.5c-1 0-2.1-.3-2.9-.9-.9-.6-1.5-1.4-1.9-2.3-.4-1-.5-2-.3-3s.7-2 1.4-2.7C17.4.9 18.4.4 19.4.2c1-.2 2.1-.1 3 .3 1 .4 1.8 1.1 2.4 1.9.6.9.9 1.9.9 2.9 0 1.4-.6 2.7-1.5 3.7-1.1.9-2.4 1.5-3.8 1.5zm0-8.2c-.6 0-1.1.2-1.6.5s-.9.8-1.1 1.3c-.2.5-.3 1.1-.2 1.7.1.6.4 1.1.8 1.5.4.4.9.7 1.5.8.6.1 1.2.1 1.7-.2.5-.2 1-.6 1.3-1.1.3-.5.5-1 .5-1.6 0-.8-.3-1.5-.9-2.1-.5-.5-1.2-.8-2-.8z"></path>
    </g>
  </symbol>
</svg>