<svg width="15" height="18" viewBox="0 0 15 18" fill="none" xmlns="http://www.w3.org/2000/svg">
<path d="M14.1879 10.4013C13.9681 10.1669 13.6701 10.0353 13.3594 10.0353C13.0486 10.0353 12.7506 10.1669 12.5309 10.4013L8.67187 14.5163L8.66367 1.5C8.66367 1.16848 8.5402 0.850537 8.32043 0.616117C8.10066 0.381696 7.80259 0.25 7.49179 0.25C7.18099 0.25 6.88292 0.381696 6.66315 0.616117C6.44338 0.850537 6.31992 1.16848 6.31992 1.5L6.32812 14.5175L2.46914 10.4013C2.36103 10.2819 2.23172 10.1866 2.08875 10.1211C1.94578 10.0556 1.792 10.0211 1.6364 10.0197C1.4808 10.0182 1.32649 10.0499 1.18247 10.1127C1.03845 10.1756 0.90761 10.2684 0.79758 10.3858C0.687549 10.5031 0.600534 10.6427 0.541611 10.7963C0.482688 10.9499 0.453038 11.1145 0.45439 11.2805C0.455742 11.4465 0.48807 11.6105 0.549487 11.763C0.610903 11.9155 0.70018 12.0534 0.812106 12.1688L5.01328 16.6513C5.33974 16.9995 5.72733 17.2758 6.1539 17.4643C6.58048 17.6528 7.03768 17.7498 7.49941 17.7498C7.96114 17.7498 8.41835 17.6528 8.84492 17.4643C9.27149 17.2758 9.65908 16.9995 9.98554 16.6513L14.1879 12.1688C14.4076 11.9343 14.531 11.6165 14.531 11.285C14.531 10.9535 14.4076 10.6357 14.1879 10.4013Z" fill="#FA2155"/>
</svg>
