<svg width="15" height="18" viewBox="0 0 15 18" fill="none" xmlns="http://www.w3.org/2000/svg">
<path d="M14.1879 7.59875C13.9681 7.83309 13.6701 7.96473 13.3594 7.96473C13.0486 7.96473 12.7506 7.83309 12.5309 7.59875L8.67187 3.48375L8.66367 16.5C8.66367 16.8315 8.5402 17.1495 8.32043 17.3839C8.10066 17.6183 7.80259 17.75 7.49179 17.75C7.18099 17.75 6.88292 17.6183 6.66315 17.3839C6.44338 17.1495 6.31992 16.8315 6.31992 16.5L6.32812 3.4825L2.46914 7.59875C2.36103 7.71814 2.23172 7.81336 2.08875 7.87888C1.94578 7.94439 1.792 7.97887 1.6364 7.98031C1.4808 7.98176 1.32649 7.95013 1.18247 7.88728C1.03845 7.82442 0.90761 7.73161 0.79758 7.61424C0.687549 7.49688 0.600534 7.35731 0.541611 7.20369C0.482688 7.05007 0.453038 6.88547 0.45439 6.7195C0.455742 6.55352 0.48807 6.3895 0.549487 6.23699C0.610903 6.08449 0.70018 5.94656 0.812106 5.83125L5.01328 1.34875C5.33974 1.00046 5.72733 0.72418 6.1539 0.535686C6.58048 0.347191 7.03768 0.250175 7.49941 0.250175C7.96114 0.250175 8.41835 0.347191 8.84492 0.535686C9.27149 0.72418 9.65908 1.00046 9.98554 1.34875L14.1879 5.83125C14.4076 6.06566 14.531 6.38354 14.531 6.715C14.531 7.04645 14.4076 7.36434 14.1879 7.59875Z" fill="#04C694"/>
</svg>
