<?xml version="1.0" encoding="utf-8"?>
<!-- Generator: Adobe Illustrator 22.0.1, SVG Export Plug-In . SVG Version: 6.00 Build 0)  -->
<svg version="1.1" id="Layer_1" xmlns="http://www.w3.org/2000/svg" xmlns:xlink="http://www.w3.org/1999/xlink" x="0px" y="0px"
	 viewBox="0 0 1920 1080" style="enable-background:new 0 0 1920 1080;" xml:space="preserve">
<style type="text/css">
	.st0{clip-path:url(#SVGID_2_);}
	.st1{fill:#FFFFFF;}
	.st2{fill:url(#SVGID_3_);}
	.st3{fill:url(#SVGID_4_);}
	.st4{opacity:0.7;}
	.st5{opacity:0.2;}
	.st6{fill:none;stroke:#FFFFFF;stroke-width:2;stroke-linecap:round;}
</style>
<g>
	<g>
		<defs>
			<rect id="SVGID_1_" x="2" width="1920" height="1080"/>
		</defs>
		<clipPath id="SVGID_2_">
			<use xlink:href="#SVGID_1_"  style="overflow:visible;"/>
		</clipPath>
		<g class="st0">
			<path class="st1" d="M52,0h1820c27.6,0,50,22.4,50,50v980c0,27.6-22.4,50-50,50H52c-27.6,0-50-22.4-50-50V50C2,22.4,24.4,0,52,0z
				"/>
			
				<radialGradient id="SVGID_3_" cx="1184.9373" cy="2.0627" r="1" gradientTransform="matrix(3.514736e-14 574 -574 3.514736e-14 1507 -679774)" gradientUnits="userSpaceOnUse">
				<stop  offset="0" style="stop-color:#04C694"/>
				<stop  offset="1" style="stop-color:#04C694;stop-opacity:0"/>
			</radialGradient>
			<circle class="st2" cx="323" cy="380" r="574"/>
			
				<radialGradient id="SVGID_4_" cx="1184.9194" cy="2.0974" r="1" gradientTransform="matrix(3.456566e-14 564.5 -564.5 3.456566e-14 2775.5 -668127.5)" gradientUnits="userSpaceOnUse">
				<stop  offset="0" style="stop-color:#6A5DF5"/>
				<stop  offset="1" style="stop-color:#6A5DF5;stop-opacity:0"/>
			</radialGradient>
			<circle class="st3" cx="1591.5" cy="759.5" r="564.5"/>
			<g class="st4">
				<rect x="2" class="st1" width="1920" height="1080"/>
			</g>
			<g class="st5">
				<rect x="17" y="-27.5" class="st1" width="1920" height="1204.5"/>
			</g>
			<path class="st6" d="M656.8,635.3l2.9,2.2c0.4,0.3,1,0.2,1.4-0.2l7.6-9.3"/>
			<path class="st1" d="M723.5,747h8.6v-2.1H726v-11.7h-2.5V747z M738.7,747.2c3,0,5-2.1,5-5.3s-1.9-5.4-5-5.4c-3,0-5,2.1-5,5.4
				C733.7,745.1,735.6,747.2,738.7,747.2z M738.7,745.2c-1.7,0-2.5-1.5-2.5-3.4s0.8-3.4,2.5-3.4s2.5,1.5,2.5,3.4
				S740.3,745.2,738.7,745.2z M750.2,751.1c2.8,0,4.9-1.3,4.9-3.9v-10.5h-2.4v1.7h-0.1c-0.4-0.7-1.1-1.8-3-1.8
				c-2.4,0-4.3,1.9-4.3,5.3c0,3.4,1.9,5.1,4.3,5.1c1.8,0,2.6-1,3-1.7h0.1v2c0,1.5-1,2.2-2.4,2.2c-1.5,0-2.1-0.7-2.4-1.3l-2.2,0.5
				C746.1,749.9,747.6,751.1,750.2,751.1z M750.2,744.9c-1.6,0-2.5-1.3-2.5-3.2s0.8-3.3,2.5-3.3c1.6,0,2.4,1.3,2.4,3.3
				C752.7,743.7,751.8,744.9,750.2,744.9z M757.6,747h2.4v-10.4h-2.4V747z M758.8,735.2c0.8,0,1.4-0.6,1.4-1.3s-0.6-1.3-1.4-1.3
				c-0.8,0-1.4,0.6-1.4,1.3C757.4,734.6,758,735.2,758.8,735.2z M765,740.9c0-1.5,0.9-2.4,2.2-2.4s2,0.8,2,2.2v6.2h2.4v-6.6
				c0-2.5-1.4-3.9-3.5-3.9c-1.6,0-2.6,0.7-3.1,1.9h-0.1v-1.8h-2.3V747h2.4L765,740.9L765,740.9z"/>
		</g>
	</g>
</g>
</svg>
